<svg xmlns="http://www.w3.org/2000/svg" width="1400" height="280" viewBox="0 0 1400 280" role="img" aria-label="Beyond Automation — Engineering practical software for modern IT operations">
  <defs>
    <linearGradient id="bg" x1="0" y1="0" x2="1" y2="1"><stop stop-color="#030b1e"/><stop offset="1" stop-color="#071a38"/></linearGradient>
    <linearGradient id="blue" x1="0" y1="0" x2="1" y2="1"><stop stop-color="#22b8ff"/><stop offset="1" stop-color="#3157e8"/></linearGradient>
  </defs>
  <rect width="1400" height="280" rx="18" fill="url(#bg)"/>
  <path d="M0 235 C180 180 300 275 475 220 S790 170 980 225 S1210 270 1400 205" fill="none" stroke="#19a7ff" stroke-opacity=".16" stroke-width="2"/>
  <path d="M0 252 C200 205 340 285 520 235 S810 195 1010 242 S1230 285 1400 225" fill="none" stroke="#63d629" stroke-opacity=".25" stroke-width="2"/>
  <g transform="translate(65 55)">
    <rect width="170" height="170" rx="85" fill="#020819" stroke="#18356e" stroke-width="4"/>
    <text x="30" y="125" font-family="Arial,Helvetica,sans-serif" font-size="112" font-weight="800" fill="#fff">B</text>
    <path d="M95 130 L132 35 L169 130 H144 L135 106 H108 L100 130 Z" fill="url(#blue)"/>
  </g>
  <line x1="275" y1="58" x2="275" y2="222" stroke="#6d7d96" stroke-width="2"/>
  <text x="315" y="105" font-family="Arial,Helvetica,sans-serif" font-size="52" font-weight="800" fill="#ffffff">BEYOND</text>
  <text x="315" y="164" font-family="Arial,Helvetica,sans-serif" font-size="52" font-weight="800" fill="#2d91ff">AUTOMATION</text>
  <text x="318" y="205" font-family="Arial,Helvetica,sans-serif" font-size="20" font-weight="600" fill="#cbd7ea">ENGINEERING PRACTICAL SOFTWARE FOR MODERN IT OPERATIONS.</text>
  <g font-family="Arial,Helvetica,sans-serif" text-anchor="middle">
    <g transform="translate(900 75)"><circle cx="0" cy="0" r="28" fill="none" stroke="#63d629" stroke-width="4"/><path d="M-11 0h22M0-11v22" stroke="#63d629" stroke-width="4"/><text y="58" font-size="17" font-weight="700" fill="#fff">PRACTICAL</text><text y="78" font-size="17" font-weight="700" fill="#fff">SOFTWARE</text></g>
    <g transform="translate(1090 75)"><circle cx="0" cy="0" r="28" fill="none" stroke="#22b8ff" stroke-width="4"/><path d="M-12 5l9 9 17-23" fill="none" stroke="#22b8ff" stroke-width="4"/><text y="58" font-size="17" font-weight="700" fill="#fff">RELIABLE</text><text y="78" font-size="17" font-weight="700" fill="#fff">AUTOMATION</text></g>
    <g transform="translate(1280 75)"><path d="M0-30 L27-18 V3 C27 24 12 37 0 43 C-12 37-27 24-27 3 V-18Z" fill="none" stroke="#63d629" stroke-width="4"/><path d="M-12 3l8 8 17-20" fill="none" stroke="#63d629" stroke-width="4"/><text y="66" font-size="17" font-weight="700" fill="#fff">CLEARER</text><text y="86" font-size="17" font-weight="700" fill="#fff">INFRASTRUCTURE</text></g>
  </g>
  <rect y="273" width="1400" height="7" fill="#63d629"/>
</svg>